<?xml version="1.0" encoding="UTF-8"?>
<svg id="_레이어_1" data-name="레이어_1" xmlns="http://www.w3.org/2000/svg" xmlns:xlink="http://www.w3.org/1999/xlink" version="1.1" viewBox="0 0 89.72 50.25">
  <!-- Generator: Adobe Illustrator 29.1.0, SVG Export Plug-In . SVG Version: 2.1.0 Build 142)  -->
  <defs>
    <style>
      .st0 {
        fill: url(#_무제_그라디언트_241);
      }

      .st1 {
        fill: url(#_무제_그라디언트_15);
      }

      .st2 {
        fill: url(#_무제_그라디언트_16);
      }

      .st3 {
        fill: url(#_무제_그라디언트_12);
      }

      .st4 {
        fill: url(#_무제_그라디언트_22);
      }

      .st5 {
        fill: url(#_무제_그라디언트_27);
      }

      .st6 {
        fill: url(#_무제_그라디언트_26);
      }

      .st7 {
        fill: url(#_무제_그라디언트_24);
      }

      .st8 {
        fill: url(#_무제_그라디언트_20);
      }

      .st9 {
        fill: url(#_무제_그라디언트_23);
      }
    </style>
    <linearGradient id="_무제_그라디언트_15" data-name="무제 그라디언트 15" x1="16.86" y1="19.53" x2="21.07" y2="17.88" gradientUnits="userSpaceOnUse">
      <stop offset=".22" stop-color="#daf"/>
      <stop offset=".33" stop-color="#d9abff"/>
      <stop offset=".43" stop-color="#cfaeff"/>
      <stop offset=".51" stop-color="#beb3ff"/>
      <stop offset=".59" stop-color="#a6bbff"/>
      <stop offset=".67" stop-color="#87c4ff"/>
      <stop offset=".67" stop-color="#87c5ff"/>
    </linearGradient>
    <linearGradient id="_무제_그라디언트_16" data-name="무제 그라디언트 16" x1="22.09" y1="19.05" x2="22.59" y2="19.05" gradientUnits="userSpaceOnUse">
      <stop offset=".22" stop-color="#daf"/>
      <stop offset=".41" stop-color="#d9abff"/>
      <stop offset=".57" stop-color="#cfaeff"/>
      <stop offset=".72" stop-color="#beb3ff"/>
      <stop offset=".86" stop-color="#a6bbff"/>
      <stop offset="1" stop-color="#87c4ff"/>
      <stop offset="1" stop-color="#87c5ff"/>
    </linearGradient>
    <linearGradient id="_무제_그라디언트_12" data-name="무제 그라디언트 12" x1="2.38" y1="35.98" x2="33.47" y2="23.78" gradientUnits="userSpaceOnUse">
      <stop offset=".33" stop-color="#daf"/>
      <stop offset=".41" stop-color="#d9abff"/>
      <stop offset=".47" stop-color="#cfaeff"/>
      <stop offset=".53" stop-color="#beb3ff"/>
      <stop offset=".59" stop-color="#a6bbff"/>
      <stop offset=".65" stop-color="#87c4ff"/>
      <stop offset=".65" stop-color="#87c5ff"/>
    </linearGradient>
    <linearGradient id="_무제_그라디언트_23" data-name="무제 그라디언트 23" x1="21.66" y1="26.34" x2="106.59" y2="49.17" gradientUnits="userSpaceOnUse">
      <stop offset="0" stop-color="#daf"/>
      <stop offset=".09" stop-color="#d9abff"/>
      <stop offset=".17" stop-color="#cfaeff"/>
      <stop offset=".24" stop-color="#beb3ff"/>
      <stop offset=".31" stop-color="#a6bbff"/>
      <stop offset=".38" stop-color="#87c4ff"/>
      <stop offset=".38" stop-color="#87c5ff"/>
    </linearGradient>
    <linearGradient id="_무제_그라디언트_20" data-name="무제 그라디언트 20" x1="24.57" y1="15.54" x2="109.49" y2="38.37" gradientUnits="userSpaceOnUse">
      <stop offset=".33" stop-color="#daf"/>
      <stop offset=".43" stop-color="#d9abff"/>
      <stop offset=".52" stop-color="#cfaeff"/>
      <stop offset=".59" stop-color="#beb3ff"/>
      <stop offset=".67" stop-color="#a6bbff"/>
      <stop offset=".73" stop-color="#87c4ff"/>
      <stop offset=".74" stop-color="#87c5ff"/>
    </linearGradient>
    <linearGradient id="_무제_그라디언트_22" data-name="무제 그라디언트 22" x1="21" y1="28.81" x2="105.92" y2="51.64" gradientUnits="userSpaceOnUse">
      <stop offset=".38" stop-color="#daf"/>
      <stop offset=".44" stop-color="#d9abff"/>
      <stop offset=".5" stop-color="#cfaeff"/>
      <stop offset=".55" stop-color="#beb3ff"/>
      <stop offset=".59" stop-color="#a6bbff"/>
      <stop offset=".64" stop-color="#87c4ff"/>
      <stop offset=".64" stop-color="#87c5ff"/>
    </linearGradient>
    <linearGradient id="_무제_그라디언트_27" data-name="무제 그라디언트 27" x1="44.68" y1="6.92" x2="43.83" y2="6.92" gradientUnits="userSpaceOnUse">
      <stop offset="0" stop-color="#daf"/>
      <stop offset=".09" stop-color="#d9abff"/>
      <stop offset=".17" stop-color="#cfaeff"/>
      <stop offset=".25" stop-color="#beb3ff"/>
      <stop offset=".31" stop-color="#a6bbff"/>
      <stop offset=".38" stop-color="#87c4ff"/>
      <stop offset=".38" stop-color="#87c5ff"/>
    </linearGradient>
    <linearGradient id="_무제_그라디언트_24" data-name="무제 그라디언트 24" x1="44.68" y1="39.26" x2="43.83" y2="39.26" gradientUnits="userSpaceOnUse">
      <stop offset="0" stop-color="#daf"/>
      <stop offset=".13" stop-color="#d9abff"/>
      <stop offset=".24" stop-color="#cfaeff"/>
      <stop offset=".34" stop-color="#beb3ff"/>
      <stop offset=".43" stop-color="#a6bbff"/>
      <stop offset=".52" stop-color="#87c4ff"/>
      <stop offset=".52" stop-color="#87c5ff"/>
    </linearGradient>
    <linearGradient id="_무제_그라디언트_26" data-name="무제 그라디언트 26" x1="44.68" y1="20.29" x2="43.83" y2="20.29" gradientUnits="userSpaceOnUse">
      <stop offset="0" stop-color="#daf"/>
      <stop offset=".11" stop-color="#d9abff"/>
      <stop offset=".19" stop-color="#cfaeff"/>
      <stop offset=".27" stop-color="#beb3ff"/>
      <stop offset=".35" stop-color="#a6bbff"/>
      <stop offset=".42" stop-color="#87c4ff"/>
      <stop offset=".42" stop-color="#87c5ff"/>
    </linearGradient>
    <linearGradient id="_무제_그라디언트_241" data-name="무제 그라디언트 24" x1="44.68" y1="29.73" x2="43.83" y2="29.73" xlink:href="#_무제_그라디언트_24"/>
  </defs>
  <g>
    <path class="st1" d="M17.9,21.49c.45,0,.92.02,1.43.08.82.1,1.58.26,2.32.44l-1.07-6.06c-.4-.07-.82-.14-1.29-.21-1.17-.17-2.27-.24-3.3-.24l1.91,5.99Z"/>
    <path class="st2" d="M14.16,15.62c-1.67.19-3.14.66-4.42,1.36l4.5,5.49c.54-.35,1.16-.61,1.86-.78l-1.94-6.08Z"/>
    <path class="st3" d="M35.47,4.18l-5.22-.75c-.6-.09-1.16.33-1.24.93l-1.74,12.18c-.1.69-.81,1.12-1.47.88-1.15-.43-2.12-.77-3.34-1.08l1.1,6.21c.69.23,1.33.46,1.89.67.48.18.77.67.69,1.18l-1.82,12.69c-.04.29-.19.56-.43.73-2.13,1.58-4.66,2.52-7.72,2.08-3.76-.54-6.34-3.7-5.42-10.17.35-2.47,1-4.58,2.18-6.05l-4.68-5.72c-2.68,2.17-4.32,5.75-5.02,10.63-1.14,7.96,2.03,15.44,10.27,16.74,4.25.66,6.51.16,8.77-.93.69-.33,1.5.16,1.55.92.03.52.43.94.94,1.01l4.57.65c.6.09,1.16-.33,1.24-.93l5.82-40.65c.09-.6-.33-1.16-.93-1.24Z"/>
  </g>
  <g>
    <path class="st9" d="M78.02,37.53c-.59.8-1.32,1.4-2.17,1.81l1.34,5.9c1.67-.34,3.12-.94,4.36-1.76l-3.53-5.94Z"/>
    <path class="st8" d="M67.94,38.93c-.64-.32-1.25-.7-1.82-1.14-.23-.18-.38-.44-.42-.73l-1.73-12.7c-.07-.51.22-1,.7-1.18,1.56-.58,3.67-1.33,6.12-1.61,5.83-.67,7.81,2.99,8.52,8.23.33,2.4.17,4.34-.34,5.86l3.98,6.7c3.39-3.16,4.62-8.28,3.89-13.64-1.32-9.69-6.32-14.28-15.97-12.97-3.14.43-4.54.91-6.52,1.63-.66.24-1.37-.19-1.46-.89l-1.66-12.19c-.08-.6-.64-1.02-1.24-.94l-5.23.71c-.6.08-1.02.64-.94,1.24l5.53,40.69c.08.6.64,1.02,1.24.94l4.57-.62c.51-.07.91-.49.95-1.01.06-.77.87-1.25,1.56-.91.45.22.9.41,1.36.58l-1.11-6.03Z"/>
    <path class="st4" d="M74.16,39.87c-.11.02-.21.04-.32.06-1.43.19-2.74.08-3.95-.25l1.06,5.79c1.23.21,2.67.24,4.49.04l-1.28-5.64Z"/>
  </g>
  <g>
    <path class="st5" d="M42.18,10.61h4c1.11,0,2-.9,2-2v-3.38c0-1.11-.9-2-2-2h-4c-1.11,0-2,.9-2,2v3.38c0,1.11.9,2,2,2ZM45.3,4.68l.56-.76c.14-.19.4-.23.58-.09l.97.71c.19.14.23.4.09.58l-.56.76c-.14.19-.4.23-.58.09l-.97-.71c-.19-.14-.23-.4-.09-.58Z"/>
    <path class="st7" d="M55.65,42.63l-.37-1.34c-.33-1.17-1.38-1.85-2.4-1.53-.85.26-1.69.43-2.35.43-1.36,0-1.85-.56-1.97-1.59l-7.5-6.9v6.46c0,5.52,1.87,8.66,7.67,8.66,1.86,0,3.88-.42,5.81-1.32.96-.45,1.44-1.72,1.12-2.87Z"/>
    <path class="st6" d="M39.05,19.17c.9,0,1.65.69,1.9,1.63l7.57,6.96v-12.62c0-1.29-.9-2.33-2-2.33h-7.47c-1.11,0-2,1.04-2,2.33v1.7c0,1.29.9,2.33,2,2.33Z"/>
    <polygon class="st0" points="41.05 23.31 41.05 29.29 48.52 36.16 48.52 30.18 41.05 23.31"/>
  </g>
</svg>